<svg width="242" height="70" viewBox="0 0 242 70" fill="none" xmlns="http://www.w3.org/2000/svg">
<rect x="2" y="2" width="66" height="66" stroke="black" stroke-width="4"/>
<line x1="25" y1="69.0073" x2="25" y2="1.99986" stroke="black" stroke-width="4"/>
<line x1="2" y1="22" x2="70" y2="22" stroke="black" stroke-width="4"/>
<g clip-path="url(#clip0_320_41)">
<path d="M18 12H61V50H14V16C14 13.7909 15.7909 12 18 12Z" stroke="black" stroke-width="4"/>
</g>
<path d="M128.188 26.8338C127.761 29.3273 126.716 31.4052 125.052 33.0675C123.387 34.7299 121.339 35.9558 118.907 36.7455C120.87 37.0779 122.491 38.0546 123.771 39.6753C125.052 41.2961 125.692 43.2078 125.692 45.4104C125.692 46.0754 125.628 46.7195 125.5 47.3429C125.116 49.5454 124.177 51.5402 122.683 53.3273C121.19 55.0727 119.227 56.4649 116.795 57.5039C114.405 58.5013 111.738 59 108.794 59H91L98.8728 15.6753H115.835C119.888 15.6753 122.982 16.5273 125.116 18.2312C127.292 19.9351 128.38 22.1376 128.38 24.839C128.38 25.4623 128.316 26.1272 128.188 26.8338ZM120.635 27.7065C120.721 27.1246 120.763 26.6884 120.763 26.3974C120.763 24.7766 120.187 23.509 119.035 22.5948C117.883 21.6805 116.261 21.2234 114.17 21.2234H105.145L102.841 34.0649H111.866C114.256 34.0649 116.219 33.5039 117.755 32.3818C119.334 31.2597 120.294 29.7013 120.635 27.7065ZM118.331 46.5948C118.416 45.9298 118.459 45.452 118.459 45.161C118.459 43.4572 117.819 42.1065 116.539 41.1091C115.259 40.1117 113.552 39.613 111.418 39.613H101.817L99.3209 53.452H109.178C111.653 53.452 113.701 52.8493 115.323 51.6442C116.944 50.439 117.947 48.7559 118.331 46.5948ZM138.87 20.1013C137.717 20.1013 136.779 19.7481 136.053 19.0416C135.328 18.3351 134.965 17.4416 134.965 16.361C134.965 14.9065 135.52 13.6597 136.629 12.6208C137.782 11.5403 139.083 11 140.534 11C141.686 11 142.603 11.3532 143.286 12.0597C144.012 12.7662 144.374 13.6597 144.374 14.7403C144.374 16.1948 143.82 17.4623 142.71 18.5429C141.601 19.5818 140.32 20.1013 138.87 20.1013ZM141.622 24.652L135.413 59H128.116L134.325 24.652H141.622ZM149.346 53.2026H165.347L164.259 59H139.809L140.897 53.2026L161.059 30.4494H144.993L146.017 24.652H170.468L169.444 30.4494L149.346 53.2026ZM187.027 37.3688L202.773 59H193.236L179.538 39.613L176.018 59H168.721L176.594 15.6753H183.89L179.538 39.613L201.173 15.6753H210.326L187.027 37.3688ZM216.778 20.1013C215.626 20.1013 214.687 19.7481 213.962 19.0416C213.236 18.3351 212.874 17.4416 212.874 16.361C212.874 14.9065 213.428 13.6597 214.538 12.6208C215.69 11.5403 216.991 11 218.442 11C219.594 11 220.512 11.3532 221.195 12.0597C221.92 12.7662 222.283 13.6597 222.283 14.7403C222.283 16.1948 221.728 17.4623 220.619 18.5429C219.508 19.5818 218.228 20.1013 216.778 20.1013ZM219.53 24.652L213.322 59H206.025L212.234 24.652H219.53ZM229.943 49.4623C229.857 50.0441 229.815 50.4182 229.815 50.5844C229.815 51.4571 230.092 52.1013 230.647 52.5169C231.201 52.8909 232.119 53.0779 233.399 53.0779H237.879L236.791 59H231.031C228.214 59 226.059 58.4597 224.566 57.3792C223.072 56.2571 222.326 54.4909 222.326 52.0805C222.326 51.1662 222.411 50.2935 222.582 49.4623L226.038 30.4494H221.878L222.902 24.652H227.126L228.662 16.1117H236.023L234.487 24.652L240 26L241.976 30.4494H233.399L229.943 49.4623Z" fill="black"/>
<defs>
<clipPath id="clip0_320_41">
<rect width="46" height="38" fill="white" transform="translate(12 10)"/>
</clipPath>
</defs>
</svg>
