<svg width="617" height="602" viewBox="0 0 617 602" fill="none" xmlns="http://www.w3.org/2000/svg">
<path d="M8.67703 154.186C-34.2782 -1.46967 124.844 -17.3136 239.677 29.6864C306.677 53.8579 350.677 -21.3136 433.677 8.68641C516.677 38.6864 417.177 133.186 544.177 181.686C671.177 230.186 609.177 447.186 498.177 449.686C387.177 452.186 417.677 488.686 306.677 572.186C195.677 655.686 8.67728 539.686 55.1772 417.186C101.677 294.686 55.1767 322.686 8.67703 154.186Z" stroke="white" stroke-width="3"/>
<path d="M247.575 275.325C242.619 260.5 265.833 236.583 284.5 246.79C301.593 256.137 319 249.833 330.5 254C360.775 264.97 349.639 270.777 363.173 283.805C379.641 299.659 387.5 341.174 349.639 341.174C318.5 341.174 327.817 356.298 304.5 363C281.183 369.701 254.74 358.294 254.74 328.262C254.74 316.985 255.83 300.017 247.575 275.325Z" stroke="white" stroke-width="3"/>
<path d="M30.392 164.443C-9.10871 21.5895 137.658 5.01172 243.749 48.6669C306.212 71.4907 347.794 2.57989 424.294 30.2314C502.501 58.5014 411.035 144.938 527.719 190.214C644.671 235.746 589.022 436.793 484.671 439.065C380.931 441.338 409.505 475.895 306.476 552.413C203.447 628.932 31.0435 522.44 73.3162 408.346C115.589 295.957 73.4149 319.869 30.392 164.443Z" stroke="white" stroke-width="3"/>
<path d="M52.1071 174.7C16.0608 44.6492 150.472 27.3374 247.821 67.6478C305.747 89.1239 344.912 26.4738 414.912 51.7769C488.325 78.3169 404.892 156.691 511.262 198.742C618.165 241.306 568.866 426.399 471.164 428.445C374.684 430.49 401.333 463.104 306.275 532.64C211.218 602.177 53.4099 505.194 91.4553 399.506C129.501 297.229 91.6532 317.053 52.1071 174.7Z" stroke="white" stroke-width="3"/>
<path d="M73.8224 184.957C41.2305 67.7094 163.287 49.6637 251.893 86.6293C305.282 106.758 342.029 50.3682 405.529 73.3229C474.15 98.1329 398.749 168.444 494.804 207.27C591.659 246.866 548.711 416.007 457.658 417.825C368.438 419.643 393.161 450.313 306.075 512.868C218.988 575.423 75.7764 487.948 109.595 390.667C143.413 298.5 109.892 314.237 73.8224 184.957Z" stroke="white" stroke-width="3"/>
<path d="M95.5378 195.215C66.4004 90.7703 176.101 71.9907 255.965 105.611C304.817 124.392 339.147 74.2635 396.147 94.8696C459.974 117.95 392.607 180.198 478.346 215.799C565.153 252.428 528.556 405.615 444.152 407.206C362.192 408.797 384.989 437.524 305.874 493.097C226.759 548.67 98.1431 470.704 127.734 381.829C157.325 299.773 128.13 311.421 95.5378 195.215Z" stroke="white" stroke-width="3"/>
<path d="M117.253 205.993C91.5705 114.351 188.916 94.8375 260.038 125.113C304.353 142.546 336.265 98.6784 386.765 116.936C445.799 138.286 386.464 192.471 461.889 224.848C538.647 258.509 508.401 395.743 430.646 397.106C355.947 398.47 376.818 425.254 305.674 473.845C234.53 522.437 120.51 453.979 145.874 373.51C171.237 301.565 146.369 309.126 117.253 205.993Z" stroke="white" stroke-width="3"/>
<path d="M138.969 217.386C116.741 138.546 201.732 118.299 264.11 145.23C303.889 161.315 333.383 123.708 377.383 139.617C431.624 159.237 380.322 205.359 445.432 234.511C512.142 265.204 488.247 386.485 417.141 387.622C349.701 388.758 368.647 413.598 305.474 455.208C242.301 496.818 142.877 437.869 164.014 365.806C185.15 303.973 164.608 307.445 138.969 217.386Z" stroke="white" stroke-width="3"/>
<path d="M160.686 228.812C141.912 162.776 214.547 141.795 268.184 165.381C303.425 180.119 330.502 148.772 368.002 162.333C417.45 180.223 374.181 218.282 428.975 244.209C485.637 271.934 468.093 377.262 403.636 378.171C343.456 379.08 360.476 401.977 305.274 436.605C250.073 471.233 165.245 421.793 182.154 358.136C199.063 306.414 182.848 305.798 160.686 228.812Z" stroke="white" stroke-width="3"/>
<path d="M182.403 240.288C167.084 187.055 227.364 165.339 272.258 185.581C302.962 198.971 327.621 173.885 358.621 185.097C403.276 201.257 368.041 231.253 412.52 253.956C459.133 278.713 447.94 368.088 390.131 368.77C337.212 369.452 352.307 390.405 305.076 418.052C257.845 445.698 187.614 405.766 200.296 350.516C212.977 308.904 201.089 304.201 182.403 240.288Z" stroke="white" stroke-width="3"/>
<path d="M204.122 251.837C192.257 211.406 240.182 188.957 276.334 205.854C302.501 217.896 324.743 199.071 349.243 207.934C389.104 222.364 361.902 244.297 396.066 263.775C432.631 285.565 427.788 358.986 376.629 359.441C330.97 359.895 344.138 378.906 304.879 399.571C265.619 420.235 209.984 389.811 218.439 342.967C226.893 311.467 219.331 302.676 204.122 251.837Z" stroke="white" stroke-width="3"/>
<path d="M225.845 263.496C217.434 235.867 253.003 212.684 280.413 226.236C302.043 236.931 321.867 224.366 339.867 230.882C374.935 243.582 355.766 257.451 379.615 273.705C406.132 292.527 407.64 349.995 363.13 350.222C324.731 350.449 335.973 367.517 304.685 381.2C273.397 394.883 232.358 373.967 236.585 335.529C240.812 314.141 237.576 301.261 225.845 263.496Z" stroke="white" stroke-width="3"/>
</svg>
</svg>
