<svg width="568" height="130" viewBox="0 0 568 130" fill="none" xmlns="http://www.w3.org/2000/svg">
<path d="M6.6 96V48.5H15.6V96H6.6ZM38.7 96V67.3C38.7 63.7667 37.6 61 35.4 59C33.2667 56.9333 30.5667 55.9 27.3 55.9C25.1 55.9 23.1333 56.3667 21.4 57.3C19.6667 58.2333 18.2667 59.5333 17.2 61.2C16.1333 62.8667 15.6 64.8667 15.6 67.2L11.9 65.4C11.9 61.8 12.6667 58.6667 14.2 56C15.8 53.3333 17.9667 51.2667 20.7 49.8C23.4333 48.2667 26.5 47.5 29.9 47.5C33.2333 47.5 36.2333 48.2333 38.9 49.7C41.6333 51.1667 43.7667 53.2333 45.3 55.9C46.9 58.5667 47.7 61.7333 47.7 65.4V96H38.7ZM70.8 96V67.3C70.8 63.7667 69.7 61 67.5 59C65.3667 56.9333 62.7 55.9 59.5 55.9C57.3 55.9 55.3 56.3667 53.5 57.3C51.7667 58.2333 50.3667 59.5333 49.3 61.2C48.2333 62.8667 47.7 64.8667 47.7 67.2L42.6 65.4C42.8 61.7333 43.7667 58.6 45.5 56C47.3 53.3333 49.6 51.2667 52.4 49.8C55.2 48.2667 58.2667 47.5 61.6 47.5C65.0667 47.5 68.1667 48.2333 70.9 49.7C73.6333 51.1667 75.8 53.2333 77.4 55.9C79.0667 58.5667 79.9 61.7667 79.9 65.5V96H70.8ZM99.7469 96.4L79.1469 48.5H89.1469L104.447 86H101.247L117.347 48.5H127.347L105.147 96.4H99.7469ZM86.1469 115.9L100.147 87.2L105.147 96.4L96.1469 115.9H86.1469ZM145.077 97C140.744 97 136.811 95.9333 133.277 93.8C129.744 91.6 126.944 88.6333 124.877 84.9C122.877 81.1667 121.877 76.9667 121.877 72.3C121.877 67.6333 122.877 63.4333 124.877 59.7C126.944 55.9667 129.711 53 133.177 50.8C136.711 48.6 140.677 47.5 145.077 47.5C148.677 47.5 151.877 48.2667 154.677 49.8C157.544 51.2667 159.844 53.3333 161.577 56C163.311 58.6 164.277 61.6333 164.477 65.1V79.4C164.277 82.8 163.311 85.8333 161.577 88.5C159.911 91.1667 157.644 93.2667 154.777 94.8C151.977 96.2667 148.744 97 145.077 97ZM146.577 88.5C151.044 88.5 154.644 87 157.377 84C160.111 80.9333 161.477 77.0333 161.477 72.3C161.477 69.0333 160.844 66.2 159.577 63.8C158.377 61.3333 156.644 59.4333 154.377 58.1C152.111 56.7 149.477 56 146.477 56C143.477 56 140.811 56.7 138.477 58.1C136.211 59.5 134.411 61.4333 133.077 63.9C131.811 66.3 131.177 69.0667 131.177 72.2C131.177 75.4 131.811 78.2333 133.077 80.7C134.411 83.1 136.244 85 138.577 86.4C140.911 87.8 143.577 88.5 146.577 88.5ZM160.877 96V83.2L162.577 71.6L160.877 60.1V48.5H169.977V96H160.877ZM196.78 97C192.114 97 187.88 95.9 184.08 93.7C180.347 91.5 177.38 88.5333 175.18 84.8C173.047 81 171.98 76.8 171.98 72.2C171.98 67.5333 173.047 63.3333 175.18 59.6C177.38 55.8667 180.347 52.9333 184.08 50.8C187.88 48.6 192.114 47.5 196.78 47.5C200.447 47.5 203.847 48.2 206.98 49.6C210.114 50.9333 212.814 52.9 215.08 55.5L209.08 61.5C207.614 59.7667 205.814 58.4667 203.68 57.6C201.614 56.6667 199.314 56.2 196.78 56.2C193.78 56.2 191.114 56.9 188.78 58.3C186.447 59.6333 184.614 61.5 183.28 63.9C181.947 66.3 181.28 69.0667 181.28 72.2C181.28 75.3333 181.947 78.1 183.28 80.5C184.614 82.9 186.447 84.8 188.78 86.2C191.114 87.6 193.78 88.3 196.78 88.3C199.314 88.3 201.614 87.8667 203.68 87C205.814 86.0667 207.647 84.7333 209.18 83L215.08 89C212.88 91.5333 210.18 93.5 206.98 94.9C203.847 96.3 200.447 97 196.78 97ZM236.73 97C232.063 97 227.83 95.9 224.03 93.7C220.296 91.5 217.33 88.5333 215.13 84.8C212.996 81 211.93 76.8 211.93 72.2C211.93 67.5333 212.996 63.3333 215.13 59.6C217.33 55.8667 220.296 52.9333 224.03 50.8C227.83 48.6 232.063 47.5 236.73 47.5C240.396 47.5 243.796 48.2 246.93 49.6C250.063 50.9333 252.763 52.9 255.03 55.5L249.03 61.5C247.563 59.7667 245.763 58.4667 243.63 57.6C241.563 56.6667 239.263 56.2 236.73 56.2C233.73 56.2 231.063 56.9 228.73 58.3C226.396 59.6333 224.563 61.5 223.23 63.9C221.896 66.3 221.23 69.0667 221.23 72.2C221.23 75.3333 221.896 78.1 223.23 80.5C224.563 82.9 226.396 84.8 228.73 86.2C231.063 87.6 233.73 88.3 236.73 88.3C239.263 88.3 241.563 87.8667 243.63 87C245.763 86.0667 247.596 84.7333 249.13 83L255.03 89C252.83 91.5333 250.13 93.5 246.93 94.9C243.796 96.3 240.396 97 236.73 97ZM276.679 97C272.012 97 267.812 95.9 264.079 93.7C260.346 91.5 257.379 88.5333 255.179 84.8C252.979 81 251.879 76.7667 251.879 72.1C251.879 67.5 252.979 63.3667 255.179 59.7C257.379 55.9667 260.346 53 264.079 50.8C267.812 48.6 272.012 47.5 276.679 47.5C281.279 47.5 285.446 48.6 289.179 50.8C292.979 52.9333 295.979 55.8667 298.179 59.6C300.379 63.3333 301.479 67.5 301.479 72.1C301.479 76.7667 300.379 81 298.179 84.8C295.979 88.5333 292.979 91.5 289.179 93.7C285.446 95.9 281.279 97 276.679 97ZM276.679 88.3C279.679 88.3 282.346 87.6 284.679 86.2C287.012 84.8 288.846 82.9 290.179 80.5C291.512 78.0333 292.179 75.2333 292.179 72.1C292.179 69.0333 291.479 66.3 290.079 63.9C288.746 61.5 286.912 59.6333 284.579 58.3C282.312 56.9 279.679 56.2 276.679 56.2C273.679 56.2 271.012 56.9 268.679 58.3C266.346 59.6333 264.512 61.5 263.179 63.9C261.846 66.3 261.179 69.0333 261.179 72.1C261.179 75.2333 261.846 78.0333 263.179 80.5C264.512 82.9 266.346 84.8 268.679 86.2C271.012 87.6 273.679 88.3 276.679 88.3ZM322.72 97C318.853 97 315.353 96.1333 312.22 94.4C309.153 92.6 306.753 90.1333 305.02 87C303.286 83.8667 302.42 80.2333 302.42 76.1V48.5H311.42V75.7C311.42 78.3 311.853 80.5667 312.72 82.5C313.653 84.3667 314.986 85.8 316.72 86.8C318.453 87.8 320.486 88.3 322.82 88.3C326.353 88.3 329.12 87.2 331.12 85C333.12 82.7333 334.12 79.6333 334.12 75.7V48.5H343.12V76.1C343.12 80.2333 342.253 83.8667 340.52 87C338.786 90.1333 336.386 92.6 333.32 94.4C330.32 96.1333 326.786 97 322.72 97ZM380.782 96V68.3C380.782 64.7 379.649 61.7333 377.382 59.4C375.115 57.0667 372.182 55.9 368.582 55.9C366.182 55.9 364.049 56.4333 362.182 57.5C360.315 58.5667 358.849 60.0333 357.782 61.9C356.715 63.7667 356.182 65.9 356.182 68.3L352.482 66.2C352.482 62.6 353.282 59.4 354.882 56.6C356.482 53.8 358.715 51.6 361.582 50C364.449 48.3333 367.682 47.5 371.282 47.5C374.882 47.5 378.049 48.4 380.782 50.2C383.582 52 385.782 54.3667 387.382 57.3C388.982 60.1667 389.782 63.2333 389.782 66.5V96H380.782ZM347.182 96V48.5H356.182V96H347.182ZM400.681 96V28.6H409.681V96H400.681ZM388.981 56.7V48.5H421.381V56.7H388.981Z" fill="#212121"/>
<circle cx="503" cy="65" r="65" fill="#212121"/>
<path d="M476.96 95V56.6H485.76V95H476.96ZM481.36 49.56C479.867 49.56 478.613 49.0533 477.6 48.04C476.64 47.0267 476.16 45.7733 476.16 44.28C476.16 42.7867 476.64 41.5333 477.6 40.52C478.613 39.5067 479.867 39 481.36 39C482.907 39 484.16 39.5067 485.12 40.52C486.08 41.5333 486.56 42.7867 486.56 44.28C486.56 45.7733 486.08 47.0267 485.12 48.04C484.16 49.0533 482.907 49.56 481.36 49.56ZM507.71 95.8C504.243 95.8 501.097 94.92 498.27 93.16C495.497 91.4 493.283 89.0267 491.63 86.04C490.03 83 489.23 79.6133 489.23 75.88C489.23 72.0933 490.03 68.7067 491.63 65.72C493.283 62.68 495.497 60.28 498.27 58.52C501.097 56.7067 504.243 55.8 507.71 55.8C510.643 55.8 513.23 56.44 515.47 57.72C517.763 58.9467 519.577 60.6533 520.91 62.84C522.243 65.0267 522.91 67.5067 522.91 70.28V81.32C522.91 84.0933 522.243 86.5733 520.91 88.76C519.63 90.9467 517.843 92.68 515.55 93.96C513.257 95.1867 510.643 95.8 507.71 95.8ZM509.15 87.48C511.337 87.48 513.23 87 514.83 86.04C516.483 85.0267 517.763 83.64 518.67 81.88C519.577 80.12 520.03 78.0933 520.03 75.8C520.03 73.5067 519.577 71.48 518.67 69.72C517.763 67.96 516.483 66.6 514.83 65.64C513.23 64.6267 511.337 64.12 509.15 64.12C507.017 64.12 505.123 64.6267 503.47 65.64C501.87 66.6 500.59 67.96 499.63 69.72C498.723 71.48 498.27 73.5067 498.27 75.8C498.27 78.0933 498.723 80.12 499.63 81.88C500.59 83.64 501.87 85.0267 503.47 86.04C505.123 87 507.017 87.48 509.15 87.48ZM528.27 95H519.47V84.68L520.99 75.32L519.47 66.04V37.4H528.27V95Z" fill="white"/>
</svg>
