<svg width="139" height="128" viewBox="0 0 139 128" fill="none" xmlns="http://www.w3.org/2000/svg">
<path d="M109.521 21.9178C115.245 25.9255 118.247 33.9102 117.412 44.7104C116.585 55.407 111.988 68.0836 103.615 80.0415C95.2419 91.9995 84.9022 100.655 75.1335 105.091C65.2702 109.569 56.7403 109.479 51.0167 105.471C45.2931 101.464 42.2908 93.479 43.1258 82.6788C43.9528 71.9822 48.5502 59.3056 56.9233 47.3477C65.2963 35.3897 75.636 26.7339 85.4047 22.2983C95.268 17.8198 103.798 17.9102 109.521 21.9178Z" stroke="white" stroke-width="8"/>
<path d="M69.8629 106.242C64.5811 109.375 57.2687 109.104 49.2214 104.98C41.2295 100.884 33.0892 93.2188 26.9274 82.8304C20.7656 72.4419 17.9418 61.6229 18.1797 52.6459C18.4193 43.6067 21.6874 37.0594 26.9691 33.9265C32.251 30.7937 39.5642 31.0645 47.6115 35.1885C55.6034 39.2841 63.7429 46.9503 69.9047 57.3386C76.0664 67.7268 78.891 78.5456 78.6532 87.5226C78.4136 96.5619 75.1447 103.11 69.8629 106.242Z" stroke="white" stroke-width="8"/>
</svg>
