<svg width="4692" height="5746" viewBox="0 0 4692 5746" fill="none" xmlns="http://www.w3.org/2000/svg">
<path d="M2770.28 2580.25C2498.78 2735.69 2352.4 3270.73 2461.44 3544.26C2581.91 3846.32 3335.2 3800.44 3421.64 3726.79C3508.08 3653.13 2801.43 3417.44 2897.86 3139.51C3004.95 2831.01 3542.7 2830.59 3528.06 2698.86C3513.66 2569.25 3084.11 2400.61 2770.28 2580.25Z" stroke="#4A3AFF" stroke-width="5" stroke-miterlimit="10"/>
<path d="M2685.28 2542.24C2367.05 2677.69 2228.97 3325.33 2369.25 3630.44C2528.24 3976.02 3346.64 3847.93 3468.12 3793.24C3572.84 3746.17 2893.03 3429.21 2974.31 3093.37C3062.52 2728.49 3547.53 2669.23 3511.3 2584.57C3472.35 2493.82 3058.71 2383.67 2685.28 2542.24Z" stroke="#4A3AFF" stroke-width="5" stroke-miterlimit="10"/>
<path d="M2600.29 2504.32C2235.83 2619.37 2105.8 3379.86 2277.06 3716.55C2474.91 4105.98 3351.55 3894.33 3514.6 3859.79C3633.12 3834.39 2985.23 3441.41 3050.67 3047.06C3120.52 2626.48 3563.28 2503.13 3494.54 2470.88C3443.24 2413.73 3034.67 2367.09 2600.29 2504.32Z" stroke="#4A3AFF" stroke-width="5" stroke-miterlimit="10"/>
<path d="M2515.29 2466.05C2104.86 2561.55 1982.87 3434.04 2185.12 3802.47C2422.16 4234.91 3368.06 4001.85 3561.33 3926.08C3682.39 3878.58 3078.02 3453.43 3127.29 3000.84C3179.18 2524.55 3573.78 2339.32 3478.03 2356.84C3408.01 2335.93 3010.54 2351 2515.29 2466.05Z" stroke="#4A3AFF" stroke-width="5" stroke-miterlimit="10"/>
<path d="M2430.28 2428.29C1974.06 2504.49 1860.11 3488.56 2092.67 3888.91C2368.99 4364.69 3362.55 4052.98 3607.55 3992.79C3745.03 3958.92 3170.54 3466.04 3203.47 2954.96C3237.34 2422.96 3592.9 2197.18 3461 2243.15C3376.52 2272.52 2986.58 2335.34 2430.28 2428.29Z" stroke="#4A3AFF" stroke-width="5" stroke-miterlimit="10"/>
<path d="M2345.38 2390.28C1843.27 2447.59 1737.45 3542.91 2000.48 3975.01C2316.34 4494.05 3358.58 4013.44 3654.12 4059.67C3807.27 4083.45 3263.68 3478.74 3279.93 2909.07C3296.86 2321.54 3605.87 2029.38 3444.25 2129.62C3343.68 2191.59 2962.71 2319.93 2345.38 2390.28Z" stroke="#4A3AFF" stroke-width="5" stroke-miterlimit="10"/>
<path d="M2260.39 2352.36C1712.48 2390.79 1614.87 3596.84 1908.21 4061.19C2263.78 4623.33 3362.22 4048.32 3700.52 4125.79C3866.03 4163.71 3356.72 3490.85 3356.21 2862.59C3355.7 2219.19 3616.11 1861.93 3427.41 2015.33C3309.06 2111.59 2938.84 2304.69 2260.39 2352.36Z" stroke="#4A3AFF" stroke-width="5" stroke-miterlimit="10"/>
<path d="M2175.38 2314.34C1581.66 2334.15 1492.52 3651.27 1816 4147.37C2211.02 4752.6 3366.78 4081.93 3746.98 4192.33C3925.27 4244.05 3450 3503.04 3432.64 2816.45C3414.95 2117.51 3625.67 1695.83 3410.63 1901.46C3273.82 2032.17 2914.79 2289.71 2175.38 2314.34Z" stroke="#4A3AFF" stroke-width="5" stroke-miterlimit="10"/>
<path d="M2090.39 2276.33C1450.87 2277.6 1369.77 3705.45 1723.81 4233.55C2158.45 4881.87 3372.12 4115.03 3793.47 4258.95C3984.96 4324.39 3543.38 3515.48 3509.01 2770.4C3474.22 2015.75 3635.07 1530.49 3393.88 1787.59C3238.27 1953.27 2891 2274.81 2090.39 2276.33Z" stroke="#4A3AFF" stroke-width="5" stroke-miterlimit="10"/>
<path d="M2005.39 2238.4C1319.65 2221.47 1247.27 3759.55 1631.62 4319.65C2105.71 5010.98 3378.13 4147.2 3839.94 4325.33C4044.98 4404.4 3636.76 3527.67 3585.37 2724.18C3533.56 1913.82 3644.63 1365.32 3377.03 1673.56C3202.63 1874.63 2867.04 2260.08 2005.39 2238.4Z" stroke="#4A3AFF" stroke-width="5" stroke-miterlimit="10"/>
<path d="M1920.39 2200.39C1189.11 2164.75 1124.6 3813.65 1539.43 4405.84C2053.47 5140.17 3384.99 4179.29 3886.42 4391.87C4105.26 4484.48 3730.31 3539.95 3661.82 2678.04C3592.99 1811.89 3653.86 1200.57 3360.27 1559.69C3166.91 1796.15 2843 2245.43 1920.39 2200.39Z" stroke="#4A3AFF" stroke-width="5" stroke-miterlimit="10"/>
<path d="M1835.39 2162.38C1058.22 2108.37 1002.43 3867.74 1447.23 4492.02C2001.07 5269.27 3391.5 4211.12 3932.89 4458.15C4165.62 4564.48 3823.77 3552.3 3738.18 2631.64C3652.42 1709.79 3663.26 1035.74 3343.5 1445.57C3131.26 1717.75 2818.95 2230.78 1835.39 2162.38Z" stroke="#4A3AFF" stroke-width="5" stroke-miterlimit="10"/>
<path d="M1750.4 2124.45C927.266 2052.07 880.026 3922.18 1355.05 4578.12C1948.67 5398.37 3398.71 4242.87 3979.47 4524.87C4226.33 4644.74 3917.41 3564.41 3814.64 2585.67C3711.86 1606.93 3672.66 871.418 3326.75 1331.62C3095.55 1639.44 2794.92 2216.31 1750.4 2124.45Z" stroke="#4A3AFF" stroke-width="5" stroke-miterlimit="10"/>
<path d="M1665.41 2086.44C796.3 1995.77 757.611 3975.85 1262.77 4664.3C1896.27 5527.82 3406.24 4274.87 4025.86 4591.41C4287.03 4724.91 4010.96 3576.6 3891 2539.53C3771.38 1506.1 3682.15 707.095 3309.9 1217.93C3059.82 1561.22 2770.88 2201.74 1665.41 2086.44Z" stroke="#4A3AFF" stroke-width="5" stroke-miterlimit="10"/>
<path d="M1580.39 2048.43C665.318 1939.47 636.534 4028.94 1170.82 4750.48C1845.8 5655.31 3414.27 4306.02 4072.58 4657.87C4348.06 4805.09 4104.83 3588.79 3967.6 2493.39C3831.13 1404.18 3691.87 542.688 3293.38 1103.98C3024.08 1482.99 2746.65 2187.35 1580.39 2048.43Z" stroke="#4A3AFF" stroke-width="5" stroke-miterlimit="10"/>
<path d="M1495.41 2010.5C534.361 1883.26 514.043 4083.03 1078.38 4836.5C1792.98 5784.67 3421.82 4337.01 4118.81 4724.24C4408.77 4885.09 4198.22 3600.82 4043.72 2446.92C3890.49 1301.82 3701.11 378.112 3276.37 989.687C2988.36 1404.77 2722.54 2172.88 1495.41 2010.5Z" stroke="#4A3AFF" stroke-width="5" stroke-miterlimit="10"/>
<path d="M1410.41 1972.49C402.971 1827.05 391.457 4137.21 986.185 4922.76C1740.41 5913.27 3429.77 4369.01 4165.29 4790.86C4470.06 4965.51 4293.89 3612.92 4120.08 2401.03C3952.03 1199.89 3710.59 214.127 3259.61 876.159C2952.64 1326.63 2698.32 2158.48 1410.41 1972.49Z" stroke="#4A3AFF" stroke-width="5" stroke-miterlimit="10"/>
<path d="M1325.42 1934.48C272.009 1772.7 268.877 4191.4 893.997 5008.95C1687.84 6042.97 3437.91 4400.5 4211.86 4857.41C4530.77 5045.69 4387.1 3625.11 4196.53 2354.89C4011.22 1097.97 3720.07 49.9762 3242.77 762.21C2916.92 1248.49 2673.78 2146.47 1325.42 1934.48Z" stroke="#4A3AFF" stroke-width="5" stroke-miterlimit="10"/>
<path d="M1240.41 1896.55C141.027 1716.06 146.445 4245.49 801.788 5095.13C1635.17 6172.16 3446.1 4431.91 4258.32 4923.95C4591.79 5125.94 4480.38 3637.13 4272.88 2308.75C4070.38 996.037 3729.63 -114.263 3225.99 648.343C2880.92 1170.77 2649.63 2131.56 1240.41 1896.55Z" stroke="#4A3AFF" stroke-width="5" stroke-miterlimit="10"/>
<path d="M1155.41 1858.54C10.0632 1659.42 23.7779 4299.67 709.598 5181.23C1582.6 6301.09 3454.49 4463.41 4304.8 4990.41C4652.92 5206.2 4574.1 3649.58 4349.25 2262.87C4129.13 894.362 3737.76 -279.093 3209.23 534.647C2844.44 1091.62 2625.51 2116.58 1155.41 1858.54Z" stroke="#4A3AFF" stroke-width="5" stroke-miterlimit="10"/>
<path d="M1070.42 1820.53C-120.894 1602.53 -99.0523 4353.94 617.415 5267.41C1530.04 6430.53 3462.88 4494.9 4351.29 5056.61C4714.14 5286.2 4666.98 3661.43 4425.7 2216.14C4188.74 792.093 3748.01 -442.993 3192.48 420.441C2809.23 1013.9 2601.56 2102.02 1070.42 1820.53Z" stroke="#4A3AFF" stroke-width="5" stroke-miterlimit="10"/>
<path d="M3175.63 306.574C2774.01 936.097 2577.17 2086.69 985.421 1782.6C-251.951 1546.15 -221.389 4407.95 525.131 5353.59C1477.46 6559.81 3471.26 4526.39 4397.76 5123.4C5146.99 5606.3 4350.1 -1534.5 3175.63 306.574Z" stroke="#4A3AFF" stroke-width="5" stroke-miterlimit="10"/>
</svg>
